<svg xmlns="http://www.w3.org/2000/svg" width="1280" height="680">
<rect width="100%" height="100%" fill="white"/>
<text x="640" y="38" text-anchor="middle" font-family="sans-serif" font-size="27">Boardfly hierarchy: flatten the network for all-to-all traffic</text>
<text x="640" y="64" text-anchor="middle" font-family="sans-serif" font-size="13">schematic / not to scale / 根据 Google Cloud 官方资料重绘</text>
<g font-family="sans-serif">
<rect x="50" y="150" width="270" height="240" fill="#f5f5f5" stroke="#333" stroke-width="2"/>
<text x="185" y="185" text-anchor="middle" font-size="20">Building Block</text>
<circle cx="120" cy="255" r="24" fill="#ddd" stroke="#333"/><circle cx="250" cy="255" r="24" fill="#ddd" stroke="#333"/>
<circle cx="120" cy="335" r="24" fill="#ddd" stroke="#333"/><circle cx="250" cy="335" r="24" fill="#ddd" stroke="#333"/>
<line x1="144" y1="255" x2="226" y2="255" stroke="#333" stroke-width="4"/><line x1="144" y1="335" x2="226" y2="335" stroke="#333" stroke-width="4"/>
<line x1="120" y1="279" x2="120" y2="311" stroke="#333" stroke-width="4"/><line x1="250" y1="279" x2="250" y2="311" stroke="#333" stroke-width="4"/>
<text x="185" y="425" text-anchor="middle" font-size="14">4-chip ring / tray</text>
<rect x="405" y="120" width="330" height="300" fill="#f5f5f5" stroke="#333" stroke-width="2"/>
<text x="570" y="160" text-anchor="middle" font-size="20">Group</text>
<text x="570" y="195" text-anchor="middle" font-size="14">8 boards fully connected via copper</text>
<rect x="455" y="235" width="75" height="50" fill="#ddd" stroke="#333"/><rect x="610" y="235" width="75" height="50" fill="#ddd" stroke="#333"/>
<rect x="455" y="330" width="75" height="50" fill="#ddd" stroke="#333"/><rect x="610" y="330" width="75" height="50" fill="#ddd" stroke="#333"/>
<line x1="530" y1="260" x2="610" y2="260" stroke="#333" stroke-width="3"/><line x1="530" y1="355" x2="610" y2="355" stroke="#333" stroke-width="3"/>
<line x1="492" y1="285" x2="492" y2="330" stroke="#333" stroke-width="3"/><line x1="647" y1="285" x2="647" y2="330" stroke="#333" stroke-width="3"/>
<rect x="825" y="95" width="390" height="360" fill="#f5f5f5" stroke="#333" stroke-width="2"/>
<text x="1020" y="140" text-anchor="middle" font-size="20">Pod</text>
<text x="1020" y="175" text-anchor="middle" font-size="14">36 groups linked through OCS</text>
<rect x="895" y="220" width="100" height="65" fill="#ddd" stroke="#333"/><text x="945" y="260" text-anchor="middle">Group</text>
<rect x="1045" y="220" width="100" height="65" fill="#ddd" stroke="#333"/><text x="1095" y="260" text-anchor="middle">Group</text>
<rect x="895" y="340" width="100" height="65" fill="#ddd" stroke="#333"/><text x="945" y="380" text-anchor="middle">Group</text>
<rect x="1045" y="340" width="100" height="65" fill="#ddd" stroke="#333"/><text x="1095" y="380" text-anchor="middle">…</text>
<text x="1020" y="490" text-anchor="middle" font-size="14">maximum diameter: 7 hops for 1024-chip pod</text>
<line x1="320" y1="270" x2="405" y2="270" stroke="#333" stroke-width="5"/><line x1="735" y1="270" x2="825" y2="270" stroke="#333" stroke-width="5"/>
<text x="640" y="600" text-anchor="middle" font-size="16">Google reports 16 → 7 hops versus an 8×8×16 3D torus, a 56% diameter reduction.</text>
</g></svg>